<?xml version="1.0" encoding="UTF-8"?>
<svg version="1.1" xmlns="http://www.w3.org/2000/svg" width="1080" height="589">
<path d="M0 0 C1.4026576 -0.00215227 2.80531343 -0.00603942 4.20796204 -0.01150513 C7.97411724 -0.02109568 11.73978927 -0.00603122 15.50588608 0.01440096 C19.46330868 0.03211799 23.42071963 0.02844422 27.37817383 0.02767944 C34.0117999 0.02954439 40.64524143 0.04680773 47.27880859 0.07421875 C54.9412815 0.10576485 62.60355343 0.11621092 70.26608658 0.11474764 C78.44765002 0.11339649 86.62913641 0.12726752 94.81067657 0.14564085 C97.16120193 0.14989716 99.5117148 0.15132227 101.86224365 0.15211868 C105.55271423 0.15412947 109.2430166 0.16635439 112.93343163 0.18645096 C114.93023836 0.19506219 116.9270796 0.19395946 118.92390442 0.19256592 C120.11521469 0.20109589 121.30652496 0.20962585 122.53393555 0.21841431 C124.0834919 0.22344184 124.0834919 0.22344184 125.66435242 0.22857094 C128.61137337 0.49817272 130.8019817 1.25033523 133.4765625 2.48583984 C129.4765625 6.48583984 125.4765625 10.48583984 121.4765625 14.48583984 C120.95320312 15.05044922 120.42984375 15.61505859 119.890625 16.19677734 C118.4765625 17.48583984 118.4765625 17.48583984 116.4765625 17.48583984 C116.4765625 18.14583984 116.4765625 18.80583984 116.4765625 19.48583984 C114.8543171 21.19577418 113.18242825 22.85931668 111.4765625 24.48583984 C110.80017998 25.29590611 110.80017998 25.29590611 110.11013317 26.12233734 C107.89516061 27.97112215 106.51527009 27.86201966 103.65193176 27.86437988 C102.65808472 27.87258255 101.66423767 27.88078522 100.64027405 27.88923645 C99.55089035 27.88308823 98.46150665 27.87694 97.33911133 27.87060547 C96.19084869 27.87597824 95.04258606 27.88135101 93.85952759 27.8868866 C91.36156207 27.89668344 88.86356244 27.89960303 86.36557961 27.89653015 C82.4101952 27.89206342 78.45526093 27.90602212 74.49992371 27.92492676 C66.096319 27.96280286 57.69273944 27.97557284 49.2890625 27.98583984 C40.23336026 27.99692002 31.17779195 28.01239376 22.12218112 28.05655241 C17.56449699 28.07778746 13.00713489 28.07606067 8.44941711 28.07043457 C6.05326997 28.07977796 3.65712586 28.08994748 1.26098633 28.10107422 C0.18172379 28.09492599 -0.89753876 28.08877777 -2.00950623 28.08244324 C-8.87531955 28.13831724 -14.93502198 28.68715284 -20.546875 33.06396484 C-21.21589844 33.89154297 -21.21589844 33.89154297 -21.8984375 34.73583984 C-22.35992187 35.27724609 -22.82140625 35.81865234 -23.296875 36.37646484 C-27.30031718 43.26136541 -26.81973495 50.71191952 -26.81396484 58.43847656 C-26.82068207 59.73202057 -26.82739929 61.02556458 -26.83432007 62.35830688 C-26.85191521 65.89146096 -26.85667265 69.42451803 -26.85795164 72.9577117 C-26.85937732 75.16912552 -26.86365475 77.380515 -26.86894608 79.59192276 C-26.88742387 87.31813359 -26.89561939 95.04427562 -26.89404297 102.77050781 C-26.89284171 109.95456717 -26.91394661 117.13832603 -26.9455303 124.32230937 C-26.97174043 130.50599377 -26.98240831 136.68958028 -26.98113215 142.87331975 C-26.98062397 146.55964503 -26.98622713 150.24570293 -27.00748825 153.9319725 C-27.030573 158.04632651 -27.02132093 162.16001285 -27.00927734 166.27441406 C-27.02613586 168.08888031 -27.02613586 168.08888031 -27.04333496 169.94000244 C-26.98747104 177.46325606 -26.20722359 184.14325753 -21.18231773 190.06680107 C-14.21842275 196.48716294 -5.51927833 195.77871687 3.33740234 195.76049805 C4.62119278 195.76560898 5.90498322 195.77071991 7.22767639 195.77598572 C10.73398192 195.78932425 14.24017932 195.78996011 17.74650526 195.78742242 C20.68118957 195.7863491 23.61585232 195.79124533 26.55053198 195.79602784 C33.478366 195.80710545 40.40614579 195.80757043 47.33398438 195.80151367 C54.4634637 195.79547613 61.59274557 195.80778324 68.72219121 195.82908374 C74.85916532 195.8467399 80.99607681 195.85269475 87.13307536 195.849446 C90.79140194 195.84763922 94.44958767 195.85020834 98.10789108 195.86416054 C102.1910342 195.87915163 106.27377934 195.86973379 110.35693359 195.8581543 C111.55722702 195.86579803 112.75752045 195.87344177 113.9941864 195.88131714 C120.68734857 195.83944937 126.32426841 195.20352124 132.4765625 192.48583984 C133.1944161 192.16921041 133.91226971 191.85258097 134.65187645 191.5263567 C137.2942005 190.01958642 137.56820539 188.34067647 138.4765625 185.48583984 C138.82261536 184.64764206 139.16866821 183.80944427 139.52520752 182.94584656 C140.79029568 178.3448158 140.67340661 174.1215275 140.57324219 169.37573242 C140.54745574 167.29450234 140.52189247 165.21326948 140.496521 163.1320343 C140.47116901 161.48338599 140.47116901 161.48338599 140.44530487 159.80143166 C140.36496041 153.93672743 140.34995422 148.0716958 140.32421875 142.20654297 C140.28869949 134.76263184 140.234255 127.32058894 140.10302734 119.87768555 C139.99841797 113.84647186 139.96391768 107.8182379 139.97397614 101.78616905 C139.96539876 99.50457269 139.93217965 97.22291314 139.87227631 94.94208717 C139.45712523 78.46149913 142.59370437 68.8214363 153.68305206 56.48908043 C156.00354192 53.89723632 158.17770053 51.19976311 160.35799789 48.48998737 C162.32278213 46.06136809 164.30074328 43.73015707 166.4765625 41.48583984 C167.1365625 41.48583984 167.7965625 41.48583984 168.4765625 41.48583984 C168.59370298 59.88886931 168.68170032 78.29180114 168.73562336 96.69512367 C168.76133356 105.2413751 168.79634539 113.78739399 168.85375977 122.33349609 C168.90381616 129.78796187 168.93590564 137.24225913 168.94700497 144.69688833 C168.95348643 148.63900533 168.96856655 152.58064051 169.00521278 156.52260208 C169.03952545 160.24422011 169.04954581 163.96516469 169.04210091 167.68692589 C169.04410071 169.68103575 169.07080913 171.67507477 169.09866333 173.66899109 C169.02157764 187.37923085 164.7200163 199.26327693 155.4765625 209.48583984 C142.65116486 221.31787622 129.97235303 223.63718248 113.06494141 223.63110352 C111.70906991 223.63409937 110.35319926 223.63750287 108.99732971 223.64128113 C105.32989693 223.65008131 101.66248751 223.65245754 97.99504519 223.65309691 C95.6998842 223.6538096 93.40472908 223.65594804 91.10956955 223.65859413 C83.09159724 223.66783389 75.07364152 223.67193067 67.05566406 223.67114258 C59.59904211 223.67054193 52.14249253 223.6810947 44.68588889 223.69688624 C38.26867161 223.70998902 31.85147792 223.71532534 25.43424737 223.71468717 C21.60827547 223.71443302 17.78236795 223.71723842 13.95640945 223.72786522 C10.35632558 223.7375926 6.75636707 223.73759382 3.15627861 223.73034859 C1.21741499 223.72881547 -0.72144875 223.73711668 -2.66029358 223.74578857 C-15.51989659 223.69975821 -25.97863706 221.01784016 -36.5234375 213.48583984 C-38.0084375 212.49583984 -38.0084375 212.49583984 -39.5234375 211.48583984 C-39.5234375 210.82583984 -39.5234375 210.16583984 -39.5234375 209.48583984 C-40.1834375 209.48583984 -40.8434375 209.48583984 -41.5234375 209.48583984 C-43.328125 207.43115234 -43.328125 207.43115234 -45.3984375 204.61083984 C-46.07648438 203.70591797 -46.75453125 202.80099609 -47.453125 201.86865234 C-53.17887922 192.51298602 -54.10463499 184.38438497 -54.02514648 173.52441406 C-54.02893668 172.0383961 -54.03444247 170.55238168 -54.04151917 169.06637573 C-54.05539747 165.05814171 -54.04435929 161.05034061 -54.02780795 157.04213095 C-54.01388458 152.83384008 -54.02042559 148.62557248 -54.02394104 144.41726685 C-54.02663684 137.3546049 -54.01321998 130.29211353 -53.98999023 123.22949219 C-53.96336382 115.07802308 -53.96164229 106.92683863 -53.9733786 98.77534091 C-53.98417637 90.91256964 -53.97795497 83.04990077 -53.96382332 75.1871376 C-53.95808291 71.85000293 -53.95813077 68.51294368 -53.96288872 65.17580795 C-53.96767892 61.24401139 -53.95747285 57.3125246 -53.93593407 53.3807869 C-53.9303945 51.94252314 -53.92987475 50.50422944 -53.93488693 49.06596375 C-53.9657309 38.94183291 -52.91103877 31.93457107 -47.5234375 23.23583984 C-46.7809375 22.02154297 -46.7809375 22.02154297 -46.0234375 20.78271484 C-44.59652169 18.59775001 -43.2073807 16.48094646 -41.5234375 14.48583984 C-40.8634375 14.48583984 -40.2034375 14.48583984 -39.5234375 14.48583984 C-39.5234375 13.82583984 -39.5234375 13.16583984 -39.5234375 12.48583984 C-37.35546875 10.68115234 -37.35546875 10.68115234 -34.3359375 8.61083984 C-32.89154297 7.59376953 -32.89154297 7.59376953 -31.41796875 6.55615234 C-21.63737083 0.83498032 -11.08257679 -0.09711597 0 0 Z " fill="#195993" transform="translate(442.5234375,167.51416015625)"/>
<path d="M0 0 C-3.79328052 4.06266896 -7.81029739 7.07020751 -12.4375 10.125 C-23.38322008 17.51232298 -33.64378439 25.50706583 -43.3046875 34.515625 C-45.37442925 36.42338696 -47.46841358 38.26054202 -49.60546875 40.08984375 C-54.60236094 44.445958 -59.27328168 49.12277097 -63.94799805 53.81762695 C-65.45572096 55.33078666 -66.96881759 56.83842885 -68.48242188 58.34570312 C-69.44563392 59.30957474 -70.4085364 60.27375584 -71.37109375 61.23828125 C-72.23661865 62.10493408 -73.10214355 62.97158691 -73.99389648 63.86450195 C-76.0367774 65.83484761 -76.0367774 65.83484761 -77 68 C-77.66 68 -78.32 68 -79 68 C-79.24492188 68.56460938 -79.48984375 69.12921875 -79.7421875 69.7109375 C-81.226895 72.41292072 -83.01966335 74.37295 -85.125 76.625 C-102.22908324 95.33344081 -116.8315873 116.71944336 -130.45703125 138.046875 C-133.29847783 142.48951367 -136.25704632 146.84663537 -139.24609375 151.19140625 C-140.98896852 153.98233488 -142.43405496 156.8056074 -143.87719727 159.75756836 C-146.03836931 164.07380345 -148.41759268 168.27464051 -150.75 172.5 C-154.41603003 179.15817384 -157.95012218 185.84100883 -161.25 192.6875 C-165.99975431 202.38917764 -171.43930533 211.44589356 -181 217 C-184.42991538 218.14330513 -187.1986416 218.20381651 -190.8125 218.25 C-192.61654297 218.28867187 -192.61654297 218.28867187 -194.45703125 218.328125 C-198.28988045 217.9731533 -200.69715027 216.92202587 -204 215 C-204 214.34 -204 213.68 -204 213 C-204.57878906 212.77699219 -205.15757812 212.55398438 -205.75390625 212.32421875 C-214.66715005 207.06928023 -220.44604085 192.12346394 -225.21850586 183.3996582 C-232.36967614 170.42794889 -240.86925692 159.02307085 -252.2734375 149.47265625 C-253.93687488 148.05384201 -255.47587289 146.56620423 -257 145 C-241.67316023 127.41410221 -241.67316023 127.41410221 -230.84375 125.6484375 C-224.30994866 125.21131699 -219.53995374 127.76161368 -214 131 C-214 131.66 -214 132.32 -214 133 C-213.40445313 133.25394531 -212.80890625 133.50789062 -212.1953125 133.76953125 C-204.72035027 137.95923428 -199.86730694 148.58478165 -195.234375 155.64453125 C-193.57342967 158.16595792 -191.85181823 160.61307845 -190 163 C-189.47792969 162.1028125 -188.95585937 161.205625 -188.41796875 160.28125 C-173.56697061 135.00404915 -155.73426094 111.17328734 -135.640625 89.82421875 C-133.49323072 87.52752339 -131.41656696 85.20227815 -129.375 82.8125 C-122.83625826 75.27146938 -115.59168969 68.46128581 -108 62 C-106.94850124 61.08545972 -105.89778684 60.17001722 -104.84765625 59.25390625 C-33.04250931 -3.19766219 -33.04250931 -3.19766219 0 0 Z " fill="#2A8BE8" transform="translate(689,120)"/>
<path d="M0 0 C1.80430733 -0.00639748 1.80430733 -0.00639748 3.64506531 -0.01292419 C5.61205132 -0.01224442 5.61205132 -0.01224442 7.61877441 -0.0115509 C9.02024932 -0.01454458 10.42172341 -0.01794759 11.82319641 -0.02172852 C15.62270607 -0.03054968 19.4221932 -0.03290579 23.22171211 -0.0335443 C25.59623066 -0.03425566 27.97074349 -0.03639158 30.34526062 -0.03904152 C38.63093428 -0.04828741 46.91659186 -0.05237719 55.20227051 -0.05158997 C62.92363459 -0.05098878 70.64492889 -0.06155055 78.36627531 -0.07733363 C84.9990991 -0.09040822 91.63190007 -0.09577392 98.26473665 -0.09513456 C102.22474911 -0.09487962 106.18469949 -0.09772847 110.1446991 -0.10831261 C113.86785917 -0.11799268 117.59089777 -0.11807344 121.31406212 -0.11079597 C123.33005231 -0.10925177 125.34604249 -0.11759678 127.36201477 -0.12623596 C129.1663221 -0.11994423 129.1663221 -0.11994423 131.00708008 -0.11352539 C132.57222225 -0.11434254 132.57222225 -0.11434254 134.16898346 -0.1151762 C137.13165018 0.14496151 139.3173623 0.8892918 142.00354004 2.13371277 C141.67354004 2.79371277 141.34354004 3.45371277 141.00354004 4.13371277 C140.20224859 3.88993314 140.20224859 3.88993314 139.38476944 3.64122868 C136.50364627 3.02716947 133.85145434 3.0109603 130.90386963 3.01345825 C129.65307617 3.01208359 128.40228271 3.01070892 127.11358643 3.0092926 C125.73022437 3.01283151 124.34686256 3.01646631 122.96350098 3.02018738 C121.50480145 3.02046949 120.04610179 3.02031104 118.58740234 3.01974487 C114.62907533 3.01945785 110.67077859 3.02533933 106.71245861 3.03231883 C102.57513266 3.03856808 98.43780602 3.03915741 94.30047607 3.04034424 C86.46659062 3.04345291 78.63271912 3.05166007 70.79883981 3.06169373 C61.87993438 3.07286925 52.96102828 3.07836895 44.0421176 3.08338916 C25.69591717 3.09384305 7.34972972 3.11143354 -10.99645996 3.13371277 C-10.99645996 2.47371277 -10.99645996 1.81371277 -10.99645996 1.13371277 C-7.26936118 0.27149579 -3.82210415 0.00613866 0 0 Z " fill="#1E5689" transform="translate(433.9964599609375,167.8662872314453)"/>
<path d="M0 0 C-3.79322553 4.06261007 -7.81015128 7.0704912 -12.4375 10.125 C-23.59856378 17.65013608 -34.10483879 25.86399137 -44 35 C-44.66 34.67 -45.32 34.34 -46 34 C-44.28969226 32.28969226 -42.57874061 30.58014598 -40.86328125 28.875 C-39.37995242 27.38234205 -37.93328161 25.85327773 -36.5 24.3125 C-33.51408544 21.55052903 -30.57107865 19.94786108 -27 18 C-23.558761 15.76820411 -23.558761 15.76820411 -22 12 C-21.01 12 -20.02 12 -19 12 C-19 10.68 -19 9.36 -19 8 C-19.66 8 -20.32 8 -21 8 C-21 7.34 -21 6.68 -21 6 C-18.44114774 4.98968935 -15.87859624 3.99159855 -13.3125 3 C-12.2306543 2.57074219 -12.2306543 2.57074219 -11.12695312 2.1328125 C-7.28959679 0.6609498 -4.18433411 -0.39614998 0 0 Z " fill="#2888DC" transform="translate(689,120)"/>
<path d="M0 0 C-0.33 0.99 -0.66 1.98 -1 3 C-1.60868518 3.00423194 -2.21737036 3.00846388 -2.84450054 3.01282406 C-17.65902971 3.11615424 -32.47351278 3.22479555 -47.2879591 3.33933926 C-54.45212888 3.39460393 -61.61630364 3.44807474 -68.78051758 3.49731445 C-75.02525397 3.54023915 -81.26995469 3.58653787 -87.51463586 3.63687855 C-90.82075855 3.66341285 -94.12687383 3.68776081 -97.4330349 3.70907402 C-101.12492165 3.73316014 -104.81671475 3.76320927 -108.50854492 3.79467773 C-109.60330643 3.8004332 -110.69806793 3.80618866 -111.82600403 3.81211853 C-112.83416168 3.82190735 -113.84231934 3.83169617 -114.88102722 3.84178162 C-116.19043416 3.85146044 -116.19043416 3.85146044 -117.52629375 3.8613348 C-120.09771952 4.00547773 -122.48999147 4.43571218 -125 5 C-125 4.34 -125 3.68 -125 3 C-122.58361873 1.79180936 -121.04486525 1.86477263 -118.34463501 1.84851074 C-116.87249794 1.83599525 -116.87249794 1.83599525 -115.37062073 1.82322693 C-114.29005905 1.81904251 -113.20949738 1.81485809 -112.09619141 1.81054688 C-110.39363945 1.79810692 -110.39363945 1.79810692 -108.6566925 1.78541565 C-106.18543536 1.76798462 -103.7141614 1.75282623 -101.24287796 1.73963928 C-97.33500033 1.71866109 -93.42720693 1.69163352 -89.51937866 1.66296387 C-81.22128746 1.60284271 -72.92315129 1.55103546 -64.625 1.5 C-55.01893613 1.4408848 -45.41291508 1.378527 -35.80692673 1.30812073 C-31.95142687 1.28150791 -28.09592296 1.26071452 -24.24038696 1.2401123 C-21.88112184 1.22351013 -19.5218586 1.20663836 -17.16259766 1.18945312 C-16.08608444 1.18526871 -15.00957123 1.18108429 -13.9004364 1.17677307 C-12.91337204 1.16842941 -11.92630768 1.16008575 -10.90933228 1.15148926 C-9.62456214 1.14375866 -9.62456214 1.14375866 -8.31383705 1.13587189 C-5.45363603 0.96791671 -2.84963236 0 0 0 Z " fill="#0F4676" transform="translate(552,192)"/>
<path d="M0 0 C0.53625 0.721875 1.0725 1.44375 1.625 2.1875 C6.82078867 8.34040763 12.36990406 12.33669582 20.52685547 13.29769897 C23.37499282 13.43998332 26.21088763 13.493253 29.0625 13.51171875 C30.09439453 13.52966995 31.12628906 13.54762115 32.18945312 13.56611633 C35.45959484 13.61995456 38.72959281 13.65403022 42 13.6875 C44.22788447 13.72069642 46.45575004 13.75518821 48.68359375 13.79101562 C54.12226685 13.87566554 59.56095918 13.94412667 65 14 C65 14.33 65 14.66 65 15 C58.38400134 15.12781934 51.76832636 15.21477405 45.15136719 15.2746582 C42.9051524 15.29964839 40.65901764 15.33365235 38.41308594 15.37719727 C11.00166574 15.89496854 11.00166574 15.89496854 1.8125 7.3125 C0 5 0 5 -1 3 C-0.67 2.01 -0.34 1.02 0 0 Z " fill="#125087" transform="translate(416,351)"/>
<path d="M0 0 C0.66 0 1.32 0 2 0 C2 14.19 2 28.38 2 43 C1.67 43 1.34 43 1 43 C0.97494385 42.27522461 0.9498877 41.55044922 0.92407227 40.80371094 C0.80651383 37.45236255 0.68452697 34.10118854 0.5625 30.75 C0.52318359 29.61046875 0.48386719 28.4709375 0.44335938 27.296875 C0.16800232 19.8410532 -0.30978258 12.42894137 -1 5 C-2.32 5.99 -3.64 6.98 -5 8 C-3.63055898 5.05043472 -2.12169591 2.47531189 0 0 Z " fill="#1B578B" transform="translate(609,209)"/>
<path d="M0 0 C1.36161255 -0.01933594 1.36161255 -0.01933594 2.75073242 -0.0390625 C7.2742474 -0.0457958 10.897706 0.0252492 15 2.1875 C14.67 2.8475 14.34 3.5075 14 4.1875 C13.50145508 4.02902588 13.00291016 3.87055176 12.48925781 3.70727539 C9.06371173 2.9919961 5.65752883 2.95165926 2.171875 2.87109375 C1.42286926 2.85031265 0.67386353 2.82953156 -0.09783936 2.80812073 C-2.48180288 2.74292912 -4.86587312 2.68388217 -7.25 2.625 C-8.86980254 2.58178584 -10.48959443 2.53817063 -12.109375 2.49414062 C-16.07280832 2.38727904 -20.0363486 2.28592667 -24 2.1875 C-24 1.8575 -24 1.5275 -24 1.1875 C-15.99859945 0.35618566 -8.03997015 0.05570257 0 0 Z " fill="#1D578B" transform="translate(561,167.8125)"/>
<path d="M0 0 C1.65 0.33 3.3 0.66 5 1 C5 2.32 5 3.64 5 5 C4.01 5 3.02 5 2 5 C1.67 6.32 1.34 7.64 1 9 C-1.31 9 -3.62 9 -6 9 C-6.33 7.68 -6.66 6.36 -7 5 C-4.36 4.01 -1.72 3.02 1 2 C0.67 1.34 0.34 0.68 0 0 Z " fill="#3390EA" transform="translate(665,127)"/>
<path d="M0 0 C0.66 0.33 1.32 0.66 2 1 C0.625 2.5 0.625 2.5 -1 4 C-1.66 4 -2.32 4 -3 4 C-3 4.99 -3 5.98 -3 7 C-3.99 7.495 -3.99 7.495 -5 8 C-5.33 8.99 -5.66 9.98 -6 11 C-6.66 11 -7.32 11 -8 11 C-8.4021875 12.0828125 -8.4021875 12.0828125 -8.8125 13.1875 C-9.98982498 15.97590126 -11.39145884 18.44095724 -13 21 C-13.66 20.67 -14.32 20.34 -15 20 C-13.26670478 17.03157542 -11.51061997 14.07728641 -9.75 11.125 C-9.25886719 10.28324219 -8.76773437 9.44148438 -8.26171875 8.57421875 C-7.77832031 7.76855469 -7.29492188 6.96289062 -6.796875 6.1328125 C-6.35698242 5.38918457 -5.91708984 4.64555664 -5.46386719 3.87939453 C-3.80715384 1.75241333 -2.53619374 0.8832863 0 0 Z " fill="#297ED8" transform="translate(517,258)"/>
<path d="M0 0 C0.99 0.33 1.98 0.66 3 1 C1.948125 1.721875 0.89625 2.44375 -0.1875 3.1875 C-5.1751868 6.77176886 -9.05846541 10.01360168 -11 16 C-11.33 16.66 -11.66 17.32 -12 18 C-12.99 17.01 -13.98 16.02 -15 15 C-4.77272727 3.29545455 -4.77272727 3.29545455 0 0 Z " fill="#2C86D6" transform="translate(447,250)"/>
<path d="M0 0 C3.96 1.98 3.96 1.98 8 4 C8 4.66 8 5.32 8 6 C8.87398438 6.35191406 8.87398438 6.35191406 9.765625 6.7109375 C12.50531734 8.29152924 13.86983969 10.09401497 15.75 12.625 C16.36359375 13.44226563 16.9771875 14.25953125 17.609375 15.1015625 C18.06828125 15.72804688 18.5271875 16.35453125 19 17 C18.67 17.66 18.34 18.32 18 19 C16.99406757 17.8803014 15.9954151 16.7540588 15 15.625 C14.1646875 14.68527344 14.1646875 14.68527344 13.3125 13.7265625 C12 12 12 12 12 10 C11.42765625 9.731875 10.8553125 9.46375 10.265625 9.1875 C7.92115366 7.95867364 5.87595062 6.57477824 3.75 5 C3.04359375 4.484375 2.3371875 3.96875 1.609375 3.4375 C0.81273437 2.7259375 0.81273437 2.7259375 0 2 C0 1.34 0 0.68 0 0 Z " fill="#2983D2" transform="translate(467,247)"/>
<path d="M0 0 C0.33 0 0.66 0 1 0 C0.51448585 7.44455023 -2.37167571 14.01649676 -7.3125 19.625 C-8.1478125 20.305625 -8.1478125 20.305625 -9 21 C-8.3001048 17.85047161 -7.34839851 14.9347497 -6 12 C-5.34 11.67 -4.68 11.34 -4 11 C-4 9.35 -4 7.7 -4 6 C-3.01 5.67 -2.02 5.34 -1 5 C-0.67 3.35 -0.34 1.7 0 0 Z " fill="#124B84" transform="translate(608,354)"/>
<path d="M0 0 C0.99 0 1.98 0 3 0 C1.36644648 4.2107125 -1.76223005 6.98539535 -4.9375 10.0625 C-5.47568359 10.59166016 -6.01386719 11.12082031 -6.56835938 11.66601562 C-8.04205208 13.1142685 -9.52082454 14.55734739 -11 16 C-12.00131033 16.99868795 -13.00166067 17.99834209 -14 19 C-14 16 -14 16 -12.82250977 14.51367188 C-12.28424561 14.00384766 -11.74598145 13.49402344 -11.19140625 12.96875 C-10.60939453 12.40542969 -10.02738281 11.84210938 -9.42773438 11.26171875 C-8.81220703 10.68035156 -8.19667969 10.09898437 -7.5625 9.5 C-6.35096635 8.34846854 -5.14373256 7.19239165 -3.94140625 6.03125 C-3.40201416 5.52142578 -2.86262207 5.01160156 -2.30688477 4.48632812 C-0.75629273 2.91713057 -0.75629273 2.91713057 0 0 Z " fill="#2982CF" transform="translate(624,170)"/>
<path d="M0 0 C0.66 0.33 1.32 0.66 2 1 C1.04663979 2.31611677 0.08714226 3.62778961 -0.875 4.9375 C-1.40867187 5.66839844 -1.94234375 6.39929688 -2.4921875 7.15234375 C-4 9 -4 9 -6 10 C-6.99 11.485 -6.99 11.485 -8 13 C-10.125 14.1875 -10.125 14.1875 -12 15 C-10.38462556 11.10082032 -7.72075127 8.28706228 -4.875 5.25 C-4.40707031 4.74339844 -3.93914063 4.23679688 -3.45703125 3.71484375 C-2.30873459 2.47280859 -1.15491328 1.23588506 0 0 Z " fill="#2E87DA" transform="translate(555,208)"/>
<path d="M0 0 C7.59 0 15.18 0 23 0 C23 0.99 23 1.98 23 3 C22.4337793 2.84152588 21.86755859 2.68305176 21.28417969 2.51977539 C18.9654655 1.99214152 16.82641603 1.795844 14.453125 1.68359375 C13.60878906 1.64169922 12.76445313 1.59980469 11.89453125 1.55664062 C11.02183594 1.51732422 10.14914062 1.47800781 9.25 1.4375 C7.91775391 1.37272461 7.91775391 1.37272461 6.55859375 1.30664062 C4.37254037 1.20086385 2.18637911 1.09877454 0 1 C0 0.67 0 0.34 0 0 Z " fill="#144D80" transform="translate(552,169)"/>
<path d="M0 0 C0.66 0.33 1.32 0.66 2 1 C0.5645497 2.77249524 -0.87343803 4.54293576 -2.3125 6.3125 C-3.51326172 7.79169922 -3.51326172 7.79169922 -4.73828125 9.30078125 C-6.42688356 11.31602166 -8.09630699 13.19488009 -10 15 C-9.45230629 10.81761166 -7.10111111 8.40131455 -4.4375 5.25 C-3.19806641 3.77273437 -3.19806641 3.77273437 -1.93359375 2.265625 C-1.29550781 1.51796875 -0.65742187 0.7703125 0 0 Z " fill="#1E7FCF" transform="translate(591,209)"/>
<path d="M0 0 C0.66 0.33 1.32 0.66 2 1 C-0.70923672 6.31427203 -3.22864787 9.42148591 -8 13 C-6.40956621 7.91061189 -3.2553049 4.12543357 0 0 Z " fill="#2884D7" transform="translate(528,240)"/>
<path d="M0 0 C0.66 0.33 1.32 0.66 2 1 C-1.88026891 5.24404412 -6.04254346 8.10917547 -11 11 C-9.52202738 7.32943063 -7.52384523 5.58914217 -4.375 3.25 C-3.55773437 2.63640625 -2.74046875 2.0228125 -1.8984375 1.390625 C-0.95871094 0.70226562 -0.95871094 0.70226562 0 0 Z " fill="#3085D1" transform="translate(604,163)"/>
<path d="M0 0 C0.66 0.33 1.32 0.66 2 1 C-3.94 6.445 -3.94 6.445 -10 12 C-10.66 11.67 -11.32 11.34 -12 11 C-8.17426612 7.07503959 -4.38002676 3.31820209 0 0 Z " fill="#2376CC" transform="translate(655,143)"/>
<path d="M0 0 C-1.7136951 4.79834628 -5.61431921 6.80715961 -10 9 C-8.13405729 4.41995879 -5.20913241 0 0 0 Z " fill="#2B83D6" transform="translate(585,181)"/>
<path d="M0 0 C-1.65 1.65 -3.3 3.3 -5 5 C-5.33 4.34 -5.66 3.68 -6 3 C-7.65 3.33 -9.3 3.66 -11 4 C-7.64191281 0.32209498 -4.88401581 -0.13200043 0 0 Z " fill="#367FC9" transform="translate(689,120)"/>
<path d="M0 0 C0.66 0.33 1.32 0.66 2 1 C1.525625 1.5775 1.05125 2.155 0.5625 2.75 C-0.9484867 4.92582084 -1.54036151 6.42602448 -2 9 C-2.99 8.01 -3.98 7.02 -5 6 C-3.35 4.02 -1.7 2.04 0 0 Z " fill="#2F84C8" transform="translate(437,259)"/>
<path d="M0 0 C0.66 0.33 1.32 0.66 2 1 C1.67 2.65 1.34 4.3 1 6 C0.01 6 -0.98 6 -2 6 C-2.99 6.66 -3.98 7.32 -5 8 C-3.62845496 5.04590299 -2.01136276 2.55991624 0 0 Z " fill="#15467F" transform="translate(609,209)"/>
<path d="M0 0 C0.99 0.66 1.98 1.32 3 2 C0.11584117 3.44207941 -2.41721528 3.09394887 -5.625 3.0625 C-6.81351563 3.05347656 -8.00203125 3.04445313 -9.2265625 3.03515625 C-10.14179687 3.02355469 -11.05703125 3.01195312 -12 3 C-12 2.67 -12 2.34 -12 2 C-11.21753906 1.93941406 -10.43507813 1.87882812 -9.62890625 1.81640625 C-8.61699219 1.73261719 -7.60507812 1.64882813 -6.5625 1.5625 C-5.55316406 1.48128906 -4.54382813 1.40007812 -3.50390625 1.31640625 C-1.06359221 1.26788532 -1.06359221 1.26788532 0 0 Z " fill="#114C7E" transform="translate(566,363)"/>
<path d="M0 0 C0.33 0.99 0.66 1.98 1 3 C-0.21484375 4.82421875 -0.21484375 4.82421875 -1.9375 6.6875 C-2.50339844 7.31011719 -3.06929687 7.93273437 -3.65234375 8.57421875 C-4.09707031 9.04472656 -4.54179688 9.51523438 -5 10 C-5.33 9.34 -5.66 8.68 -6 8 C-4.02 5.36 -2.04 2.72 0 0 Z " fill="#0A3C85" transform="translate(602,217)"/>
</svg>
